# xmcd CD database file
#
# Track frame offsets:
#	150
#	18570
#	39697
#	59952
#	86887
#	120110
#	138427
#	161535
#	194890
#	216150
#
# Disc length: 3249 seconds
#
# Revision: 0
# Processed by: cddbd v1.5.2PL0 Copyright (c) Steve Scherf et al.
# Submitted via: CDex 1.70beta2
#
DISCID=980caf0a
DTITLE=The Judge and his Chicago Gang - Chicago Hot Stuff - CD 2
DYEAR=1996
DGENRE=Jazz
TTITLE0=01-South Rampart Street Parade
TTITLE1=02-Sentimental Blues
TTITLE2=03-Sunday
TTITLE3=04-Black And Blue
TTITLE4=05-Ballad Medley
TTITLE5=06-Blues In The Air
TTITLE6=07-Chicago Hot Stuff
TTITLE7=08-Tin Roof Blues
TTITLE8=09-Oh Baby
TTITLE9=10- Blue And Sentimental
EXTD=YEAR: 1996
EXTT0=
EXTT1=
EXTT2=
EXTT3=
EXTT4=
EXTT5=
EXTT6=
EXTT7=
EXTT8=
EXTT9=
PLAYORDER=
